<?xml version="1.0" encoding="UTF-8"?>
<svg xmlns="http://www.w3.org/2000/svg" xmlns:xlink="http://www.w3.org/1999/xlink" width="75pt" height="74.999997pt" viewBox="0 0 75 74.999997" version="1.2">
<defs>
<clipPath id="clip1">
  <path d="M 0 7.210938 L 75 7.210938 L 75 66.460938 L 0 66.460938 Z M 0 7.210938 "/>
</clipPath>
</defs>
<g id="surface1">
<rect x="0" y="0" width="75" height="74.999997" style="fill:rgb(100%,100%,100%);fill-opacity:1;stroke:none;"/>
<rect x="0" y="0" width="75" height="74.999997" style="fill:rgb(100%,100%,100%);fill-opacity:1;stroke:none;"/>
<g clip-path="url(#clip1)" clip-rule="nonzero">
<path style=" stroke:none;fill-rule:nonzero;fill:rgb(52.549744%,38.038635%,64.309692%);fill-opacity:1;" d="M 37.5 7.222656 C 16.816406 7.222656 -0.0078125 19.695312 -0.0078125 35.019531 C -0.0078125 41.132812 2.730469 47.101562 7.722656 51.9375 L 4.714844 64.246094 C 4.550781 64.914062 4.78125 65.609375 5.308594 66.046875 C 5.632812 66.3125 6.03125 66.453125 6.433594 66.453125 C 6.6875 66.453125 6.941406 66.398438 7.179688 66.285156 L 20.847656 59.933594 C 25.992188 61.816406 31.726562 62.820312 37.5 62.820312 C 58.179688 62.820312 75.007812 50.347656 75.007812 35.019531 C 75.007812 19.695312 58.179688 7.222656 37.5 7.222656 Z M 37.5 59.261719 C 31.890625 59.261719 26.328125 58.253906 21.40625 56.355469 C 21.394531 56.351562 21.386719 56.351562 21.378906 56.347656 C 21.320312 56.324219 21.261719 56.3125 21.203125 56.296875 C 21.152344 56.285156 21.101562 56.265625 21.050781 56.257812 C 20.710938 56.199219 20.351562 56.242188 20.015625 56.398438 L 9.035156 61.5 L 11.410156 51.773438 C 11.421875 51.722656 11.425781 51.671875 11.433594 51.621094 C 11.4375 51.601562 11.4375 51.585938 11.441406 51.570312 C 11.453125 51.472656 11.457031 51.371094 11.453125 51.277344 C 11.453125 51.261719 11.449219 51.242188 11.449219 51.226562 C 11.441406 51.132812 11.429688 51.039062 11.410156 50.945312 C 11.402344 50.921875 11.398438 50.902344 11.390625 50.878906 C 11.367188 50.796875 11.339844 50.710938 11.304688 50.632812 C 11.292969 50.601562 11.277344 50.574219 11.261719 50.542969 C 11.226562 50.472656 11.1875 50.40625 11.140625 50.339844 C 11.117188 50.308594 11.09375 50.277344 11.070312 50.242188 C 11.023438 50.183594 10.972656 50.128906 10.917969 50.078125 C 10.902344 50.0625 10.890625 50.039062 10.871094 50.023438 C 6.074219 45.6875 3.539062 40.5 3.539062 35.019531 C 3.539062 21.652344 18.773438 10.78125 37.5 10.78125 C 56.226562 10.78125 71.460938 21.652344 71.460938 35.019531 C 71.460938 48.382812 56.226562 59.261719 37.5 59.261719 Z M 37.5 59.261719 "/>
</g>
<path style=" stroke:none;fill-rule:nonzero;fill:rgb(32.548523%,47.839355%,55.288696%);fill-opacity:1;" d="M 39.128906 20.886719 C 39.113281 20.84375 39.085938 20.808594 39.066406 20.769531 C 39.035156 20.710938 39.007812 20.65625 38.972656 20.601562 C 38.941406 20.550781 38.902344 20.507812 38.863281 20.464844 C 38.828125 20.421875 38.792969 20.375 38.753906 20.332031 C 38.710938 20.289062 38.664062 20.253906 38.617188 20.214844 C 38.574219 20.179688 38.535156 20.144531 38.488281 20.113281 C 38.433594 20.078125 38.375 20.046875 38.316406 20.015625 C 38.277344 19.996094 38.242188 19.972656 38.203125 19.953125 C 38.191406 19.949219 38.183594 19.949219 38.179688 19.949219 C 38.117188 19.921875 38.050781 19.90625 37.988281 19.886719 C 37.941406 19.871094 37.894531 19.855469 37.84375 19.84375 C 37.785156 19.832031 37.726562 19.832031 37.667969 19.824219 C 37.609375 19.820312 37.554688 19.808594 37.5 19.808594 C 37.445312 19.808594 37.390625 19.820312 37.332031 19.824219 C 37.273438 19.828125 37.214844 19.832031 37.15625 19.84375 C 37.109375 19.851562 37.058594 19.871094 37.011719 19.886719 C 36.949219 19.90625 36.886719 19.917969 36.824219 19.945312 C 36.816406 19.949219 36.808594 19.949219 36.800781 19.953125 C 36.757812 19.96875 36.722656 19.996094 36.683594 20.015625 C 36.625 20.046875 36.570312 20.074219 36.515625 20.109375 C 36.46875 20.144531 36.425781 20.179688 36.378906 20.21875 C 36.335938 20.253906 36.289062 20.289062 36.25 20.332031 C 36.207031 20.375 36.167969 20.421875 36.132812 20.46875 C 36.097656 20.511719 36.058594 20.550781 36.027344 20.597656 C 35.992188 20.65625 35.960938 20.714844 35.929688 20.777344 C 35.910156 20.8125 35.886719 20.847656 35.871094 20.886719 L 29.792969 35.082031 C 29.792969 35.082031 29.792969 35.085938 29.792969 35.085938 L 25.160156 45.914062 C 24.773438 46.816406 25.1875 47.863281 26.089844 48.25 C 26.316406 48.347656 26.554688 48.394531 26.785156 48.394531 C 27.472656 48.394531 28.128906 47.992188 28.417969 47.316406 L 32.59375 37.554688 L 42.402344 37.554688 L 46.582031 47.316406 C 46.871094 47.992188 47.523438 48.394531 48.210938 48.394531 C 48.445312 48.394531 48.683594 48.347656 48.910156 48.25 C 49.808594 47.863281 50.226562 46.816406 49.839844 45.914062 Z M 34.117188 33.996094 L 37.5 26.097656 L 40.882812 33.996094 Z M 34.117188 33.996094 "/>
</g>
</svg>
